HIERARCHY
ROOT Hips
{
  OFFSET 0 0 0
  CHANNELS 6 Xposition Yposition Zposition Zrotation Yrotation Xrotation
  JOINT LeftThigh
  {
    OFFSET 8.409438 0 -5.917753
    CHANNELS 3 Zrotation Yrotation Xrotation
    JOINT LeftLeg
    {
      OFFSET 0 0 -42.358652
      CHANNELS 3 Zrotation Yrotation Xrotation
      JOINT LeftFoot
      {
        OFFSET 0 0 -39.357303
        CHANNELS 3 Zrotation Yrotation Xrotation
      }
    }
  }
  JOINT RightThigh
  {
    OFFSET -8.409438 0 -5.917753
    CHANNELS 3 Zrotation Yrotation Xrotation
    JOINT RightLeg
    {
      OFFSET 0 0 -42.358652
      CHANNELS 3 Zrotation Yrotation Xrotation
      JOINT RightFoot
      {
        OFFSET 0 0 -39.357303
        CHANNELS 3 Zrotation Yrotation Xrotation
      }
    }
  }
  JOINT SpineLow
  {
    OFFSET 0 0 4.719101
    CHANNELS 3 Zrotation Yrotation Xrotation
    JOINT SpineMid
    {
      OFFSET 0 0 12.899191
      CHANNELS 3 Zrotation Yrotation Xrotation
      JOINT Chest
      {
        OFFSET 0 0 12.899191
        CHANNELS 3 Zrotation Yrotation Xrotation
        JOINT LeftShoulder
        {
          OFFSET 7.550562 1.41573 9.438202
          CHANNELS 3 Zrotation Yrotation Xrotation
          JOINT LeftArm
          {
            OFFSET 9.155056 0 4.247191
            CHANNELS 3 Zrotation Yrotation Xrotation
            JOINT LeftForearm
            {
              OFFSET 0 0 25.771955
              CHANNELS 3 Zrotation Yrotation Xrotation
              JOINT LeftHand
              {
                OFFSET 0 0 25.197169
                CHANNELS 3 Zrotation Yrotation Xrotation
              }
            }
          }
        }
        JOINT RightShoulder
        {
          OFFSET -7.550562 1.41573 9.438202
          CHANNELS 3 Zrotation Yrotation Xrotation
          JOINT RightArm
          {
            OFFSET -9.155056 0 4.247191
            CHANNELS 3 Zrotation Yrotation Xrotation
            JOINT RightForearm
            {
              OFFSET 0 0 -25.771955
              CHANNELS 3 Zrotation Yrotation Xrotation
              JOINT RightHand
              {
                OFFSET 0 0 -25.197169
                CHANNELS 3 Zrotation Yrotation Xrotation
              }
            }
          }
        }
        JOINT Neck
        {
          OFFSET 0 0 15.101124
          CHANNELS 3 Zrotation Yrotation Xrotation
          JOINT Head
          {
            OFFSET 0 0 11.325843
            CHANNELS 3 Zrotation Yrotation Xrotation
            End Site
            {
              OFFSET 0 0 14.157303
            }
          }
        }
      }
    }
  }
}
MOTION
Frames: 7
Frame Time: 0.0
0.0  93.25843  0.0  -6.102324  35.788564  -96.303029  19.587178  -22.549706  12.942422  -2.018155  -0.961005  14.936709  -0.670188  3.252765  0.201393  -12.450738  -11.355632  -22.814563  -3.471723  14.052708  23.110318  -2.738315  1.187762  2.658508  1.056866  -0.679405  1.752242  2.838617  -1.932114  4.760077  2.838617  -1.932114  4.760077  -19.938577  23.024273  9.151781  129.578213  45.352319  -164.205549  -18.15529  -3.054864  81.307541  64.124293  -11.327204  5.522598  7.758144  -11.643723  14.542638  -42.643695  74.869228  -74.836041  -38.350233  -42.513127  -78.113414  62.21125  9.974808  -14.44856  -17.460072  3.294761  13.21374  -13.170025  2.096584  10.011501  
0.0  93.25843  0.0  -6.407676  36.90642  -96.690403  20.837893  -23.225565  12.448762  -3.540166  -0.916286  14.563082  -0.787107  3.161072  0.253631  -12.398081  -10.705371  -22.611624  -6.243396  15.017446  22.179703  -0.689537  0.673215  2.744027  0.971518  -0.723565  1.762113  2.601978  -2.046994  4.788002  2.601978  -2.046994  4.788002  -20.16938  23.048098  8.976559  128.42578  45.451545  -165.103251  -17.641748  -3.262056  80.96873  64.138653  -12.101167  4.732988  7.683247  -11.605021  14.435629  -42.536831  75.547018  -74.718321  -39.356289  -42.343665  -77.416531  62.103468  9.885282  -14.640582  -17.649937  3.477105  13.387505  -13.317186  2.224495  10.148126  
0.0  93.25843  0.0  -6.697372  37.940379  -97.10403  20.936722  -23.608289  12.447707  -3.913387  -0.916977  14.10707  -0.800403  3.101058  0.281722  -12.10091  -10.109835  -22.454424  -7.360678  15.097898  21.641702  0.077958  0.643636  2.978615  0.901285  -0.770257  1.782434  2.406064  -2.170189  4.844213  2.406064  -2.170189  4.844213  -20.45756  22.978216  8.675745  127.127378  45.589884  -166.050261  -18.370696  -3.973312  80.963161  63.823607  -12.083289  4.928445  7.581044  -11.572805  14.225894  -42.766538  76.250678  -74.913945  -40.20697  -42.587815  -76.754246  61.985864  9.876652  -14.640388  -17.964216  3.661702  13.504742  -13.557399  2.352921  10.243383  
0.0  93.25843  0.0  -6.990166  38.907881  -97.549758  20.021896  -23.764586  12.838247  -3.360178  -0.917673  13.650478  -0.743096  3.035482  0.281756  -11.625487  -9.68292  -22.35633  -7.054845  14.537535  21.551884  -0.942084  0.963455  3.248212  0.802088  -0.837746  1.799875  2.129511  -2.34784  4.893255  2.129511  -2.34784  4.893255  -20.536181  23.058632  8.357205  126.027462  45.872623  -166.895798  -18.636391  -4.239879  81.103811  64.179256  -12.129189  4.67439  7.637088  -11.415691  13.993955  -43.01338  76.807524  -75.010603  -40.777995  -43.094228  -76.250091  61.836585  9.879033  -14.602683  -18.089076  3.863325  13.603634  -13.655752  2.498754  10.3241  
0.0  93.25843  0.0  -7.261459  39.90018  -97.938287  18.597082  -23.634696  13.402622  -2.552362  -0.992254  13.126702  -0.536946  2.968904  0.298614  -11.256083  -9.336819  -22.403787  -6.216944  14.222911  21.979545  -2.51444  0.992296  3.501956  0.666485  -0.905153  1.803199  1.7539  -2.522046  4.905671  1.7539  -2.522046  4.905671  -20.414094  23.193322  8.072395  125.267235  46.375642  -167.547908  -18.793424  -4.13225  81.234405  64.850617  -12.200849  4.510879  7.966726  -11.252779  13.824658  -42.895595  77.112815  -74.679939  -40.825154  -43.479371  -75.89285  61.738921  10.173808  -14.47397  -18.249172  4.101395  13.686562  -13.781162  2.671633  10.394192  
0.0  93.25843  0.0  -7.560383  40.758136  -98.31385  17.373433  -23.379534  13.928214  -1.825893  -1.225927  12.566661  -0.326394  2.890613  0.300658  -10.978047  -8.980247  -22.576166  -5.729559  13.816265  22.726194  -3.704398  1.058018  3.540837  0.548162  -0.965933  1.80207  1.426128  -2.679294  4.906058  1.426128  -2.679294  4.906058  -20.304267  23.321331  7.821999  124.959665  47.051019  -167.935596  -18.555872  -4.031107  81.196229  65.471668  -12.487392  4.371159  8.184482  -11.09774  13.620455  -42.024464  77.15318  -73.640434  -40.766919  -43.661413  -75.825963  61.764754  10.215382  -14.444594  -18.2726  4.221047  13.790074  -13.80192  2.757936  10.475397  
0.0  93.25843  0.0  -7.810688  41.774823  -98.556181  15.970839  -22.852589  14.2772  -1.283601  -1.605816  12.022564  0.022268  2.789017  0.417682  -11.190325  -8.588722  -22.846333  -5.730108  13.723078  23.544927  -4.338091  0.966947  3.256263  0.405588  -1.016983  1.770066  1.034083  -2.807713  4.823749  1.034083  -2.807713  4.823749  -20.243762  23.477517  7.66938  125.027143  47.813691  -168.119944  -17.90516  -4.312509  80.993744  65.667569  -12.92246  4.088058  8.455031  -11.00864  13.561566  -41.21062  77.006773  -72.556116  -40.308527  -43.620815  -75.959218  61.922376  10.418394  -14.336312  -18.549528  4.345732  13.859485  -14.012672  2.843348  10.53327  
